# xmcd
#
# Track frame offsets: 
#        150
#        13802
#        25352
#        39672
#        58597
#        70130
#        83617
#        99890
#        114305
#        130070
#        144402
#        153550
#        168992
#        181155
#        193757
#        205317
#        221280
#        237280
#        245492
#        262232
#        276785
#        282610
#        293720
#
# Disc length: 4195 seconds
#
# Revision: 2
# Processed by: cddbd v1.5.2PL0 Copyright (c) Steve Scherf et al.
# Submitted via: ExactAudioCopy v1.1
#
DISCID=52106117
DTITLE=Various Artist - JULIANA'S TOKYO Vol.4 TRANCE RAVE PARTY
DYEAR=1993
DGENRE=Dance
TTITLE0=BIZARRE INC featuring ANGIE BROWN - I'M GONNA GET YOU
TTITLE1=MAGIC MARMALADE - AMERICA
TTITLE2=P.O.P.P.Y. - ARGENTINA (GET READY FOR THIS)
TTITLE3=FELIX - DON'T YOU WANT ME
TTITLE4=QUASIMODO - I NEED LOVING YOU
TTITLE5=GLOBAL WAVE - REALITY
TTITLE6=AB LOGIC - THE HITMAN
TTITLE7=DIGITAL BOY - 1-2-3 ACID
TTITLE8=RAGE - RUN TO YOU
TTITLE9=STARR GAZER - RE-FLUX
TTITLE10=GANGSTER POINT - PEOPLE DON'T YOU FEEL
TTITLE11=DEF LA DESH and THE FRESH WITNESS - TEAR IT UP
TTITLE12=2 THE CORE - HAVE A NICE DAY
TTITLE13=2nd FUNK-TION - GONNA BE ALLRIGHT
TTITLE14=URBAN HYPE - THE FEELING
TTITLE15=ROTATION - JUMP!
TTITLE16=DREAM FREQUENCY featuring DEBBIE SHARP - TAKE ME
TTITLE17=NICO - OH YEAH!
TTITLE18=JOHN ROBINSON featuring PRAGA KHAN and JADE 4 U - TO BE FREE
TTITLE19=DANCE CONSPIRACY - DUB WAR
TTITLE20=THE PRODIGIY - OUT OF SPACE
TTITLE21=PRAGA KHAN featuring JADE 4 U - I FEEL GOOD
TTITLE22=ROTTERDAM TERMINATION SOURCE - POING
EXTD=YEAR: 1993
EXTT0=
EXTT1=
EXTT2=
EXTT3=
EXTT4=
EXTT5=
EXTT6=
EXTT7=
EXTT8=
EXTT9=
EXTT10=
EXTT11=
EXTT12=
EXTT13=
EXTT14=
EXTT15=
EXTT16=
EXTT17=
EXTT18=
EXTT19=
EXTT20=
EXTT21=
EXTT22=
PLAYORDER=
